<svg width="29" height="38" viewBox="0 0 29 38" fill="none" xmlns="http://www.w3.org/2000/svg">
<g filter="url(#filter0_d_26_3)">
<path d="M14.4669 30C11.5711 26.692 9.0677 23.2905 6.99398 19.59C5.76095 17.4034 4.69607 15.1606 4.22901 12.6936C3.42568 8.41378 4.73343 4.82543 8.18964 2.20891C11.6645 -0.407596 15.5131 -0.706626 19.3429 1.3492C23.2101 3.40503 25.0597 6.8065 24.8541 11.1798C24.7981 12.5254 24.4245 13.8898 23.9387 15.1606C21.865 20.7301 18.3341 25.365 14.4669 30ZM14.4295 6.8065C12.3744 6.8065 10.6931 8.48854 10.7117 10.5444C10.7117 12.6002 12.3931 14.2822 14.4482 14.2822C16.5032 14.2822 18.1846 12.6002 18.1846 10.5444C18.1659 8.48854 16.5032 6.8065 14.4295 6.8065Z" fill="#E5E5E5"/>
</g>
<defs>
<filter id="filter0_d_26_3" x="0" y="0" width="28.8696" height="38" filterUnits="userSpaceOnUse" color-interpolation-filters="sRGB">
<feFlood flood-opacity="0" result="BackgroundImageFix"/>
<feColorMatrix in="SourceAlpha" type="matrix" values="0 0 0 0 0 0 0 0 0 0 0 0 0 0 0 0 0 0 127 0" result="hardAlpha"/>
<feOffset dy="4"/>
<feGaussianBlur stdDeviation="2"/>
<feComposite in2="hardAlpha" operator="out"/>
<feColorMatrix type="matrix" values="0 0 0 0 0 0 0 0 0 0 0 0 0 0 0 0 0 0 0.25 0"/>
<feBlend mode="normal" in2="BackgroundImageFix" result="effect1_dropShadow_26_3"/>
<feBlend mode="normal" in="SourceGraphic" in2="effect1_dropShadow_26_3" result="shape"/>
</filter>
</defs>
</svg>
