<svg width="138" height="42" viewBox="0 0 138 42" fill="none" xmlns="http://www.w3.org/2000/svg">
<g filter="url(#filter0_d_250_162)">
<path fill-rule="evenodd" clip-rule="evenodd" d="M68.0844 2.69287L64.6836 0L61.2827 2.69287H9C6.23859 2.69287 4 4.93164 4 7.69287V29C4 31.7612 6.23859 34 9 34H129C131.761 34 134 31.7612 134 29V7.69287C134 4.93164 131.761 2.69287 129 2.69287H68.0844Z" fill="#F5F4F6"/>
</g>
<path d="M22.5938 19.3984H21.5391V23H20.0859V14.5469H21.5391V18.125H22.4844L25.3281 14.5469H27.0781L23.7344 18.6094L27.3594 23H25.5234L22.5938 19.3984ZM28.0469 18.6953C28.0469 17.8672 28.2083 17.1224 28.5312 16.4609C28.8594 15.7995 29.3125 15.2891 29.8906 14.9297C30.474 14.5703 31.138 14.3906 31.8828 14.3906C33.0339 14.3906 33.9635 14.7891 34.6719 15.5859C35.3854 16.3828 35.7422 17.4427 35.7422 18.7656V18.8672C35.7422 19.6901 35.5833 20.4297 35.2656 21.0859C34.9531 21.737 34.5026 22.2448 33.9141 22.6094C33.3307 22.974 32.6589 23.1562 31.8984 23.1562C30.7526 23.1562 29.8229 22.7578 29.1094 21.9609C28.401 21.1641 28.0469 20.1094 28.0469 18.7969V18.6953ZM29.5 18.8672C29.5 19.8047 29.7161 20.5573 30.1484 21.125C30.5859 21.6927 31.1693 21.9766 31.8984 21.9766C32.6328 21.9766 33.2161 21.6901 33.6484 21.1172C34.0807 20.5391 34.2969 19.7318 34.2969 18.6953C34.2969 17.7682 34.0755 17.0182 33.6328 16.4453C33.1953 15.8672 32.612 15.5781 31.8828 15.5781C31.1693 15.5781 30.5938 15.862 30.1562 16.4297C29.7188 16.9974 29.5 17.8099 29.5 18.8672ZM44.4609 23H43.0156V19.3906H39.1328V23H37.6797V14.5469H39.1328V18.2109H43.0156V14.5469H44.4609V23ZM46.7188 21.8203L47.2188 21.2031C47.7812 20.474 48.1016 19.3802 48.1797 17.9219L48.3125 14.5469H53.7578V21.8203H54.8438V25.4844H53.3984V23H47.5V25.4844H46.0547L46.0625 21.8203H46.7188ZM48.4297 21.8203H52.3125V15.8828H49.7109L49.625 17.8984C49.5365 19.5807 49.138 20.888 48.4297 21.8203ZM61.9141 14.5469H63.3594V23H61.9141V16.8359L58.0156 23H56.5703V14.5469H58.0156V20.7188L61.9141 14.5469ZM65.8047 14.5469H67.2578V21.8203H71.1484V14.5469H72.5938V21.8203H73.6016L73.4609 25.5078H72.1641V23H65.8047V14.5469ZM80.6328 14.5469H82.0781V23H80.6328V16.8359L76.7344 23H75.2891V14.5469H76.7344V20.7188L80.6328 14.5469ZM84.0156 18.6953C84.0156 17.8672 84.1771 17.1224 84.5 16.4609C84.8281 15.7995 85.2812 15.2891 85.8594 14.9297C86.4427 14.5703 87.1068 14.3906 87.8516 14.3906C89.0026 14.3906 89.9323 14.7891 90.6406 15.5859C91.3542 16.3828 91.7109 17.4427 91.7109 18.7656V18.8672C91.7109 19.6901 91.5521 20.4297 91.2344 21.0859C90.9219 21.737 90.4714 22.2448 89.8828 22.6094C89.2995 22.974 88.6276 23.1562 87.8672 23.1562C86.7214 23.1562 85.7917 22.7578 85.0781 21.9609C84.3698 21.1641 84.0156 20.1094 84.0156 18.7969V18.6953ZM85.4688 18.8672C85.4688 19.8047 85.6849 20.5573 86.1172 21.125C86.5547 21.6927 87.138 21.9766 87.8672 21.9766C88.6016 21.9766 89.1849 21.6901 89.6172 21.1172C90.0495 20.5391 90.2656 19.7318 90.2656 18.6953C90.2656 17.7682 90.0443 17.0182 89.6016 16.4453C89.1641 15.8672 88.5807 15.5781 87.8516 15.5781C87.138 15.5781 86.5625 15.862 86.125 16.4297C85.6875 16.9974 85.4688 17.8099 85.4688 18.8672ZM100.43 23H98.9844V19.3906H95.1016V23H93.6484V14.5469H95.1016V18.2109H98.9844V14.5469H100.43V23ZM106.266 23.1562C105.12 23.1562 104.188 22.7812 103.469 22.0312C102.75 21.276 102.391 20.2682 102.391 19.0078V18.7422C102.391 17.9036 102.549 17.1562 102.867 16.5C103.19 15.8385 103.638 15.3229 104.211 14.9531C104.789 14.5781 105.414 14.3906 106.086 14.3906C107.185 14.3906 108.039 14.7526 108.648 15.4766C109.258 16.2005 109.562 17.237 109.562 18.5859V19.1875H103.836C103.857 20.0208 104.099 20.6953 104.562 21.2109C105.031 21.7214 105.625 21.9766 106.344 21.9766C106.854 21.9766 107.286 21.8724 107.641 21.6641C107.995 21.4557 108.305 21.1797 108.57 20.8359L109.453 21.5234C108.745 22.612 107.682 23.1562 106.266 23.1562ZM106.086 15.5781C105.503 15.5781 105.013 15.7917 104.617 16.2188C104.221 16.6406 103.977 17.2344 103.883 18H108.117V17.8906C108.076 17.1562 107.878 16.5885 107.523 16.1875C107.169 15.7812 106.69 15.5781 106.086 15.5781ZM118.383 18.8672C118.383 20.1536 118.089 21.1901 117.5 21.9766C116.911 22.763 116.115 23.1562 115.109 23.1562C114.083 23.1562 113.276 22.8307 112.688 22.1797V26.25H111.242V14.5469H112.562L112.633 15.4844C113.221 14.7552 114.039 14.3906 115.086 14.3906C116.102 14.3906 116.904 14.7734 117.492 15.5391C118.086 16.3047 118.383 17.3698 118.383 18.7344V18.8672ZM116.938 18.7031C116.938 17.75 116.734 16.9974 116.328 16.4453C115.922 15.8932 115.365 15.6172 114.656 15.6172C113.781 15.6172 113.125 16.0052 112.688 16.7812V20.8203C113.12 21.5911 113.781 21.9766 114.672 21.9766C115.365 21.9766 115.914 21.7031 116.32 21.1562C116.732 20.6042 116.938 19.7865 116.938 18.7031Z" fill="#292929"/>
<defs>
<filter id="filter0_d_250_162" x="0" y="0" width="138" height="42" filterUnits="userSpaceOnUse" color-interpolation-filters="sRGB">
<feFlood flood-opacity="0" result="BackgroundImageFix"/>
<feColorMatrix in="SourceAlpha" type="matrix" values="0 0 0 0 0 0 0 0 0 0 0 0 0 0 0 0 0 0 127 0" result="hardAlpha"/>
<feOffset dy="4"/>
<feGaussianBlur stdDeviation="2"/>
<feColorMatrix type="matrix" values="0 0 0 0 0 0 0 0 0 0 0 0 0 0 0 0 0 0 0.25 0"/>
<feBlend mode="normal" in2="BackgroundImageFix" result="effect1_dropShadow_250_162"/>
<feBlend mode="normal" in="SourceGraphic" in2="effect1_dropShadow_250_162" result="shape"/>
</filter>
</defs>
</svg>
