<svg width="92" height="42" viewBox="0 0 92 42" fill="none" xmlns="http://www.w3.org/2000/svg">
<g filter="url(#filter0_d_250_174)">
<path fill-rule="evenodd" clip-rule="evenodd" d="M45.4083 2.69287L43.2109 0L41.0135 2.69287H9C6.23853 2.69287 4 4.93164 4 7.69287V29C4 31.7612 6.23853 34 9 34H83C85.7615 34 88 31.7612 88 29V7.69287C88 4.93164 85.7615 2.69287 83 2.69287H45.4083Z" fill="#F5F4F6"/>
</g>
<path d="M22.6641 23H21.2188V15.7422H17.3281V23H15.875V14.5469H22.6641V23ZM30.4531 14.5469H31.8984V23H30.4531V16.8359L26.5547 23H25.1094V14.5469H26.5547V20.7188L30.4531 14.5469ZM40.5 15.7188H37.6641V23H36.2188V15.7188H33.4375V14.5469H40.5V15.7188ZM47 23C46.9167 22.8333 46.849 22.5365 46.7969 22.1094C46.125 22.8073 45.3229 23.1562 44.3906 23.1562C43.5573 23.1562 42.8724 22.9219 42.3359 22.4531C41.8047 21.9792 41.5391 21.3802 41.5391 20.6562C41.5391 19.776 41.8724 19.0938 42.5391 18.6094C43.2109 18.1198 44.1536 17.875 45.3672 17.875H46.7734V17.2109C46.7734 16.7057 46.6224 16.3047 46.3203 16.0078C46.0182 15.7057 45.5729 15.5547 44.9844 15.5547C44.4688 15.5547 44.0365 15.6849 43.6875 15.9453C43.3385 16.2057 43.1641 16.5208 43.1641 16.8906H41.7109C41.7109 16.4688 41.8594 16.0625 42.1562 15.6719C42.4583 15.276 42.8646 14.9635 43.375 14.7344C43.8906 14.5052 44.4557 14.3906 45.0703 14.3906C46.0443 14.3906 46.8073 14.6354 47.3594 15.125C47.9115 15.6094 48.1979 16.2786 48.2188 17.1328V21.0234C48.2188 21.7995 48.3177 22.4167 48.5156 22.875V23H47ZM44.6016 21.8984C45.0547 21.8984 45.4844 21.7812 45.8906 21.5469C46.2969 21.3125 46.5911 21.0078 46.7734 20.6328V18.8984H45.6406C43.8698 18.8984 42.9844 19.4167 42.9844 20.4531C42.9844 20.9062 43.1354 21.2604 43.4375 21.5156C43.7396 21.7708 44.1276 21.8984 44.6016 21.8984ZM57.3906 23H55.9453V19.3906H52.0625V23H50.6094V14.5469H52.0625V18.2109H55.9453V14.5469H57.3906V23ZM65.1875 14.5469H66.6328V23H65.1875V16.8359L61.2891 23H59.8438V14.5469H61.2891V20.7188L65.1875 14.5469ZM72.4609 23.1562C71.3151 23.1562 70.3828 22.7812 69.6641 22.0312C68.9453 21.276 68.5859 20.2682 68.5859 19.0078V18.7422C68.5859 17.9036 68.7448 17.1562 69.0625 16.5C69.3854 15.8385 69.8333 15.3229 70.4062 14.9531C70.9844 14.5781 71.6094 14.3906 72.2812 14.3906C73.3802 14.3906 74.2344 14.7526 74.8438 15.4766C75.4531 16.2005 75.7578 17.237 75.7578 18.5859V19.1875H70.0312C70.0521 20.0208 70.2943 20.6953 70.7578 21.2109C71.2266 21.7214 71.8203 21.9766 72.5391 21.9766C73.0495 21.9766 73.4818 21.8724 73.8359 21.6641C74.1901 21.4557 74.5 21.1797 74.7656 20.8359L75.6484 21.5234C74.9401 22.612 73.8776 23.1562 72.4609 23.1562ZM72.2812 15.5781C71.6979 15.5781 71.2083 15.7917 70.8125 16.2188C70.4167 16.6406 70.1719 17.2344 70.0781 18H74.3125V17.8906C74.2708 17.1562 74.0729 16.5885 73.7188 16.1875C73.3646 15.7812 72.8854 15.5781 72.2812 15.5781Z" fill="#292929"/>
<defs>
<filter id="filter0_d_250_174" x="0" y="0" width="92" height="42" filterUnits="userSpaceOnUse" color-interpolation-filters="sRGB">
<feFlood flood-opacity="0" result="BackgroundImageFix"/>
<feColorMatrix in="SourceAlpha" type="matrix" values="0 0 0 0 0 0 0 0 0 0 0 0 0 0 0 0 0 0 127 0" result="hardAlpha"/>
<feOffset dy="4"/>
<feGaussianBlur stdDeviation="2"/>
<feColorMatrix type="matrix" values="0 0 0 0 0 0 0 0 0 0 0 0 0 0 0 0 0 0 0.25 0"/>
<feBlend mode="normal" in2="BackgroundImageFix" result="effect1_dropShadow_250_174"/>
<feBlend mode="normal" in="SourceGraphic" in2="effect1_dropShadow_250_174" result="shape"/>
</filter>
</defs>
</svg>
