<svg width="92" height="42" viewBox="0 0 92 42" fill="none" xmlns="http://www.w3.org/2000/svg">
<g filter="url(#filter0_d_250_180)">
<path fill-rule="evenodd" clip-rule="evenodd" d="M45.4083 2.69287L43.2109 0L41.0135 2.69287H9C6.23853 2.69287 4 4.93164 4 7.69287V29C4 31.7612 6.23853 34 9 34H83C85.7615 34 88 31.7612 88 29V7.69287C88 4.93164 85.7615 2.69287 83 2.69287H45.4083Z" fill="#F5F4F6"/>
</g>
<path d="M28.9297 15.0312C29.9922 15.0312 30.8412 15.388 31.4766 16.1016C32.1172 16.8099 32.4375 17.7448 32.4375 18.9062V19.0391C32.4375 19.8359 32.2839 20.5495 31.9766 21.1797C31.6693 21.8047 31.2266 22.2917 30.6485 22.6406C30.0756 22.9844 29.4141 23.1562 28.6641 23.1562C27.5287 23.1562 26.6146 22.7786 25.9219 22.0234C25.2292 21.263 24.8829 20.2448 24.8829 18.9688V18.2656C24.8829 16.4896 25.211 15.0781 25.8672 14.0312C26.5287 12.9844 27.5026 12.3464 28.7891 12.1172C29.5183 11.987 30.0105 11.8281 30.2657 11.6406C30.5209 11.4531 30.6485 11.1953 30.6485 10.8672H31.836C31.836 11.5182 31.6875 12.026 31.3907 12.3906C31.099 12.7552 30.6303 13.013 29.9844 13.1641L28.9063 13.4062C28.0469 13.6094 27.4011 13.9531 26.9688 14.4375C26.5417 14.9167 26.2631 15.5573 26.1329 16.3594C26.8985 15.474 27.8308 15.0312 28.9297 15.0312ZM28.6485 16.2188C27.9401 16.2188 27.3776 16.4583 26.961 16.9375C26.5443 17.4115 26.336 18.0703 26.336 18.9141V19.0391C26.336 19.9453 26.5443 20.6641 26.961 21.1953C27.3829 21.7214 27.9506 21.9844 28.6641 21.9844C29.3829 21.9844 29.9506 21.7188 30.3672 21.1875C30.7839 20.6562 30.9922 19.8802 30.9922 18.8594C30.9922 18.0625 30.7813 17.4245 30.3594 16.9453C29.9428 16.4609 29.3724 16.2188 28.6485 16.2188ZM37.5704 23.1562C36.4245 23.1562 35.4922 22.7812 34.7735 22.0312C34.0547 21.276 33.6954 20.2682 33.6954 19.0078V18.7422C33.6954 17.9036 33.8542 17.1562 34.1719 16.5C34.4948 15.8385 34.9428 15.3229 35.5157 14.9531C36.0938 14.5781 36.7188 14.3906 37.3907 14.3906C38.4896 14.3906 39.3438 14.7526 39.9532 15.4766C40.5625 16.2005 40.8672 17.237 40.8672 18.5859V19.1875H35.1407C35.1615 20.0208 35.4037 20.6953 35.8672 21.2109C36.336 21.7214 36.9297 21.9766 37.6485 21.9766C38.1589 21.9766 38.5912 21.8724 38.9454 21.6641C39.2995 21.4557 39.6094 21.1797 39.875 20.8359L40.7579 21.5234C40.0495 22.612 38.987 23.1562 37.5704 23.1562ZM37.3907 15.5781C36.8073 15.5781 36.3178 15.7917 35.9219 16.2188C35.5261 16.6406 35.2813 17.2344 35.1875 18H39.4219V17.8906C39.3803 17.1562 39.1823 16.5885 38.8282 16.1875C38.474 15.7812 37.9948 15.5781 37.3907 15.5781ZM49.4766 14.5469V23H48.0235V15.7422H45.1485L44.9766 18.9062C44.8829 20.3594 44.6381 21.3984 44.2422 22.0234C43.8516 22.6484 43.2292 22.974 42.375 23H41.7969V21.7266L42.211 21.6953C42.6797 21.6432 43.0157 21.3724 43.2188 20.8828C43.4219 20.3932 43.5521 19.487 43.6094 18.1641L43.7657 14.5469H49.4766ZM53.375 17.4609H55.5704C56.5287 17.4714 57.2865 17.7214 57.8438 18.2109C58.4011 18.7005 58.6797 19.3646 58.6797 20.2031C58.6797 21.0469 58.3933 21.724 57.8204 22.2344C57.2474 22.7448 56.4766 23 55.5079 23H51.9297V14.5469H53.375V17.4609ZM53.375 18.6406V21.8203H55.5235C56.0651 21.8203 56.4844 21.6823 56.7813 21.4062C57.0782 21.125 57.2266 20.7422 57.2266 20.2578C57.2266 19.7891 57.0808 19.4062 56.7891 19.1094C56.5026 18.8073 56.099 18.651 55.5782 18.6406H53.375ZM63.9922 23.1562C62.8464 23.1562 61.9141 22.7812 61.1954 22.0312C60.4766 21.276 60.1172 20.2682 60.1172 19.0078V18.7422C60.1172 17.9036 60.2761 17.1562 60.5938 16.5C60.9167 15.8385 61.3646 15.3229 61.9375 14.9531C62.5157 14.5781 63.1407 14.3906 63.8125 14.3906C64.9115 14.3906 65.7657 14.7526 66.375 15.4766C66.9844 16.2005 67.2891 17.237 67.2891 18.5859V19.1875H61.5625C61.5834 20.0208 61.8256 20.6953 62.2891 21.2109C62.7579 21.7214 63.3516 21.9766 64.0704 21.9766C64.5808 21.9766 65.0131 21.8724 65.3672 21.6641C65.7214 21.4557 66.0313 21.1797 66.2969 20.8359L67.1797 21.5234C66.4714 22.612 65.4089 23.1562 63.9922 23.1562ZM63.8125 15.5781C63.2292 15.5781 62.7396 15.7917 62.3438 16.2188C61.948 16.6406 61.7032 17.2344 61.6094 18H65.8438V17.8906C65.8021 17.1562 65.6042 16.5885 65.25 16.1875C64.8959 15.7812 64.4167 15.5781 63.8125 15.5781Z" fill="#292929"/>
<defs>
<filter id="filter0_d_250_180" x="0" y="0" width="92" height="42" filterUnits="userSpaceOnUse" color-interpolation-filters="sRGB">
<feFlood flood-opacity="0" result="BackgroundImageFix"/>
<feColorMatrix in="SourceAlpha" type="matrix" values="0 0 0 0 0 0 0 0 0 0 0 0 0 0 0 0 0 0 127 0" result="hardAlpha"/>
<feOffset dy="4"/>
<feGaussianBlur stdDeviation="2"/>
<feColorMatrix type="matrix" values="0 0 0 0 0 0 0 0 0 0 0 0 0 0 0 0 0 0 0.25 0"/>
<feBlend mode="normal" in2="BackgroundImageFix" result="effect1_dropShadow_250_180"/>
<feBlend mode="normal" in="SourceGraphic" in2="effect1_dropShadow_250_180" result="shape"/>
</filter>
</defs>
</svg>
